<?xml version="1.0" encoding="UTF-8"?>
<svg xmlns="http://www.w3.org/2000/svg" xmlns:xlink="http://www.w3.org/1999/xlink" width="100pt" height="100pt" viewBox="0 0 100 100" version="1.1">
<g id="surface1">
<path style=" stroke:none;fill-rule:nonzero;fill:rgb(0%,0%,0%);fill-opacity:1;" d="M 37.011719 26.953125 C 24.375 27.421875 12.675781 28.710938 9.003906 30.058594 C 5.800781 31.230469 3.378906 33.339844 1.953125 36.210938 C 0.703125 38.769531 0.371094 40.507812 0.253906 44.921875 C 0.0390625 53.144531 0.976562 56.679688 4.179688 59.882812 C 7.128906 62.8125 11.113281 64.257812 17.636719 64.746094 C 20.214844 64.941406 20.117188 64.765625 20.117188 69.53125 L 20.117188 73.4375 L 20.761719 73.4375 C 21.328125 73.4375 21.699219 73.085938 24.804688 69.628906 C 26.679688 67.539062 28.378906 65.761719 28.554688 65.703125 C 28.75 65.644531 30.859375 65.722656 33.242188 65.859375 C 38.984375 66.191406 60.664062 66.191406 66.796875 65.859375 C 82.96875 65 86.464844 64.570312 90.566406 63.046875 C 93.027344 62.109375 94.394531 61.269531 96.015625 59.667969 C 97.636719 58.066406 98.828125 55.878906 99.355469 53.515625 C 99.863281 51.328125 99.863281 41.328125 99.355469 39.355469 C 98.378906 35.507812 95.917969 32.402344 92.558594 30.800781 C 87.285156 28.261719 74.648438 27.070312 51.269531 26.875 C 46.015625 26.816406 39.589844 26.855469 37.011719 26.953125 Z M 23.925781 38.457031 C 26.71875 39.765625 28.769531 42.65625 28.789062 45.332031 C 28.808594 46.621094 28.613281 47.089844 28.320312 46.484375 C 28.222656 46.328125 28.085938 45.605469 27.96875 44.882812 C 27.441406 41.347656 25.371094 39.296875 21.679688 38.59375 C 20.15625 38.300781 20 38.222656 20.214844 37.871094 C 20.46875 37.480469 22.519531 37.792969 23.925781 38.457031 Z M 34.902344 38.320312 C 35.15625 38.574219 36.074219 40.703125 37.324219 44.0625 C 38.417969 47.011719 39.394531 49.355469 39.472656 49.277344 C 39.550781 49.179688 40.46875 46.816406 41.523438 43.984375 C 42.597656 41.074219 43.632812 38.632812 43.886719 38.359375 C 44.53125 37.65625 45.566406 37.714844 46.328125 38.476562 C 46.816406 38.964844 46.914062 39.199219 46.816406 39.707031 C 46.621094 40.917969 41.074219 54.765625 40.566406 55.3125 C 39.902344 56.054688 38.925781 56.054688 38.242188 55.3125 C 37.636719 54.6875 32.03125 40.507812 32.03125 39.648438 C 32.03125 38.769531 32.246094 38.457031 33.066406 38.085938 C 33.925781 37.695312 34.238281 37.753906 34.902344 38.320312 Z M 15.527344 38.691406 C 16.660156 39.746094 17.96875 41.738281 17.96875 42.421875 C 17.96875 42.792969 17.734375 43.183594 17.1875 43.671875 C 16.523438 44.296875 16.40625 44.511719 16.40625 45.195312 C 16.40625 46.25 17.226562 47.675781 18.535156 48.886719 C 19.511719 49.804688 21.25 50.78125 21.914062 50.78125 C 22.109375 50.78125 22.695312 50.390625 23.242188 49.902344 C 23.789062 49.414062 24.394531 49.023438 24.589844 49.023438 C 25.039062 49.023438 27.675781 50.761719 28.515625 51.582031 C 28.828125 51.914062 29.101562 52.34375 29.101562 52.558594 C 29.101562 53.125 28.632812 53.925781 27.890625 54.609375 C 26.386719 56.035156 25.683594 56.035156 23.046875 54.667969 C 18.300781 52.246094 14.746094 48.671875 12.441406 44.042969 C 11.152344 41.425781 11.054688 40.410156 12.050781 39.257812 C 12.578125 38.613281 13.75 37.910156 14.316406 37.890625 C 14.492188 37.890625 15.058594 38.261719 15.527344 38.691406 Z M 51.210938 38.457031 C 51.679688 38.886719 51.835938 39.179688 51.835938 39.6875 C 51.835938 41.621094 49.746094 42.421875 48.535156 40.976562 C 47.96875 40.3125 47.910156 39.6875 48.339844 38.867188 C 48.925781 37.734375 50.195312 37.539062 51.210938 38.457031 Z M 56.367188 38.300781 C 56.660156 38.613281 56.757812 39.121094 56.835938 40.546875 C 56.894531 41.542969 57.050781 42.480469 57.167969 42.597656 C 57.34375 42.773438 57.714844 42.753906 58.671875 42.5 C 60.410156 42.070312 61.445312 42.109375 62.597656 42.65625 C 65.625 44.0625 67.109375 48.847656 65.566406 52.226562 C 64.84375 53.808594 64.0625 54.707031 62.851562 55.371094 C 61.425781 56.152344 59.921875 56.171875 58.378906 55.410156 C 57.050781 54.765625 56.972656 54.765625 56.367188 55.371094 C 55.683594 56.054688 54.824219 56.015625 54.082031 55.273438 L 53.496094 54.707031 L 53.554688 46.679688 L 53.613281 38.632812 L 54.082031 38.261719 C 54.707031 37.753906 55.878906 37.773438 56.367188 38.300781 Z M 22.792969 40.136719 C 23.984375 40.488281 25.605469 41.875 26.210938 43.027344 C 26.699219 44.023438 26.796875 45.761719 26.367188 45.839844 C 26.152344 45.898438 26.015625 45.605469 25.859375 44.765625 C 25.390625 42.382812 24.550781 41.464844 22.207031 40.820312 C 21.425781 40.605469 20.976562 40.371094 20.9375 40.15625 C 20.859375 39.746094 21.464844 39.746094 22.792969 40.136719 Z M 75.332031 42.5 C 77.949219 43.398438 79.84375 45.878906 79.941406 48.535156 C 80 50.058594 79.921875 50.078125 75.136719 50.195312 L 70.996094 50.292969 L 70.9375 50.800781 C 70.859375 51.425781 71.542969 52.304688 72.382812 52.65625 C 73.574219 53.144531 75.058594 53.007812 76.640625 52.246094 C 77.421875 51.875 78.203125 51.5625 78.378906 51.5625 C 78.769531 51.5625 79.6875 52.65625 79.6875 53.105469 C 79.6875 53.75 78.945312 54.433594 77.402344 55.195312 C 75.957031 55.917969 75.78125 55.957031 74.023438 55.957031 C 72.402344 55.957031 72.011719 55.878906 70.976562 55.410156 C 68.535156 54.277344 67.363281 52.441406 67.226562 49.511719 C 67.148438 47.539062 67.519531 46.191406 68.554688 44.765625 C 70.097656 42.617188 72.910156 41.679688 75.332031 42.5 Z M 84.414062 42.871094 C 84.648438 43.144531 84.941406 43.359375 85.058594 43.359375 C 85.175781 43.359375 85.566406 43.144531 85.9375 42.871094 C 87.109375 42.011719 88.476562 42.285156 88.984375 43.476562 C 89.414062 44.511719 89.042969 45.078125 87.695312 45.546875 C 86.5625 45.917969 85.703125 46.601562 85.195312 47.558594 C 84.921875 48.027344 84.863281 48.730469 84.863281 51.269531 C 84.863281 54.472656 84.746094 55.039062 84.003906 55.605469 C 83.574219 55.9375 82.597656 55.917969 82.089844 55.566406 C 81.855469 55.390625 81.5625 54.941406 81.445312 54.53125 C 81.171875 53.535156 81.191406 44.375 81.464844 43.574219 C 81.875 42.382812 83.632812 41.972656 84.414062 42.871094 Z M 51.132812 43.867188 C 51.5625 44.355469 51.5625 44.433594 51.5625 49.628906 L 51.5625 54.902344 L 51.074219 55.371094 C 50.136719 56.328125 48.59375 55.859375 48.28125 54.53125 C 48.046875 53.613281 48.085938 44.550781 48.320312 44.0625 C 48.554688 43.59375 49.589844 43.144531 50.195312 43.28125 C 50.46875 43.320312 50.878906 43.59375 51.132812 43.867188 Z M 51.132812 43.867188 "/>
<path style=" stroke:none;fill-rule:nonzero;fill:rgb(0%,0%,0%);fill-opacity:1;" d="M 59.082031 45.527344 C 56.210938 46.367188 56.210938 51.796875 59.082031 52.734375 C 61.015625 53.378906 62.695312 51.679688 62.695312 49.0625 C 62.695312 46.601562 61.015625 44.941406 59.082031 45.527344 Z M 59.082031 45.527344 "/>
<path style=" stroke:none;fill-rule:nonzero;fill:rgb(0%,0%,0%);fill-opacity:1;" d="M 71.679688 45.820312 C 70.800781 46.621094 70.585938 47.089844 70.878906 47.617188 C 71.074219 47.96875 71.308594 48.007812 73.574219 47.96875 L 76.074219 47.949219 L 76.132812 47.304688 C 76.25 46.054688 75.078125 45.117188 73.359375 45.117188 C 72.597656 45.117188 72.34375 45.234375 71.679688 45.820312 Z M 71.679688 45.820312 "/>
</g>
</svg>
